<svg xmlns="http://www.w3.org/2000/svg" version="1.1" xmlns:xlink="http://www.w3.org/1999/xlink" width="512" height="512" x="0" y="0" viewBox="0 0 682.667 682.667" style="enable-background:new 0 0 512 512" xml:space="preserve" class=""><g><defs><clipPath id="a" clipPathUnits="userSpaceOnUse"><path d="M0 512h512V0H0Z" fill="#FFFFFF" opacity="1" data-original="#FFFFFF"></path></clipPath></defs><g clip-path="url(#a)" transform="matrix(1.33333 0 0 -1.33333 0 682.667)"><path d="M0 0v97.333c0 33.138-26.862 60-60 60h-96.67m-118.166-275.499 257.59 257.59m57.077-257.59v-28.961a119.999 119.999 0 0 0-35.147-84.852l-8.372-8.373a120.001 120.001 0 0 0-84.853-35.147h-215.256a119.997 119.997 0 0 0-84.852 35.147l-8.372 8.373a119.996 119.996 0 0 0-35.148 84.852V68.129a119.996 119.996 0 0 0 35.148 84.852l8.372 8.373a119.997 119.997 0 0 0 84.852 35.147h28.961" style="stroke-width:40;stroke-linecap:round;stroke-linejoin:round;stroke-miterlimit:10;stroke-dasharray:none;stroke-opacity:1" transform="translate(452.169 295.499)" fill="none" stroke="#FFFFFF" stroke-width="40" stroke-linecap="round" stroke-linejoin="round" stroke-miterlimit="10" stroke-dasharray="none" stroke-opacity="" data-original="#FFFFFF" class=""></path></g></g></svg>